<?xml version="1.0" encoding="utf-8"?>
<!-- Generator: Adobe Illustrator 24.3.0, SVG Export Plug-In . SVG Version: 6.00 Build 0)  -->
<svg version="1.1" id="Layer_1" xmlns="http://www.w3.org/2000/svg" xmlns:xlink="http://www.w3.org/1999/xlink" x="0px" y="0px"
	 width="100.6px" height="113.3px" viewBox="0 0 100.6 113.3" style="enable-background:new 0 0 100.6 113.3;" xml:space="preserve"
	>
<style type="text/css">
	.st0{fill:#B68B34;}
</style>
<path class="st0" d="M99.7,111.5h-1.1c-2.1-0.2-4-1.1-5.4-2.5c-1.5-1.5-2.8-3.3-3.8-5.2c-0.7-1.3-1.4-2.6-2-3.9l-0.2-0.5l0,0L87,99
	l0,0C75.3,72.1,58,28.6,46.9,1.3c-0.1-0.3-0.3-0.4-0.6-0.5h-0.2c-0.4,0-0.8,0.3-0.9,0.7c-0.2,0.7-0.5,1.4-0.8,2
	c-0.3,0.5-0.6,1-1.1,1.4C43.1,5,43,5,42.9,5c-0.6-0.1-1.3-0.3-1.8-0.7c-0.7-0.4-1.5-0.9-2.3-1.4c-1.2-0.7-2.5-1.3-3.9-1.8
	c-1.2-0.4-2.4-0.8-3.6-1C30.5,0,29.8,0,29.1,0c-0.9,0-1.9,0.1-2.8,0.2c-2.7,0.5-5.2,1.6-7.3,3.2c-4.4,2.9-7,7.9-7,13.1
	c0,3.2,0.9,6.4,2.6,9.2c2.1,3.7,5.1,6.6,7.9,9.7l0,0l7.3,6.7l0.1,0.1l-3.3,8.2C11.2,52.9-0.1,66.1,0,81.7c0,2.4,0.3,4.7,0.8,7
	c3,13.5,14.6,23.4,28.4,24.2c0.8,0,1.6,0.1,2.4,0.1c9.7,0,17.9-3.2,23.7-8.6c5.9-5.5,9.2-13.3,9.1-21.4c-0.1-5.5-1.3-10.8-3.7-15.8
	c-5.1-11-15.6-20.3-24.3-28.4h18.5l25.9,62.5c0.5,1.6,1.1,3.1,1.8,4.6c0.6,1.1,0.9,2.3,1.1,3.6c0,0.5-0.2,1-0.5,1.3
	c-0.7,0.5-1.4,0.8-2.3,0.8h-2.1c-0.5,0-0.9,0.4-0.9,0.9c0,0.5,0.4,0.9,0.9,0.9h21.1c0.5,0,0.9-0.4,0.9-0.9
	C100.6,111.9,100.2,111.5,99.7,111.5C99.7,111.5,99.7,111.5,99.7,111.5z M57.2,77.6l-0.5,0.1l0,0c0.7,2.9,1.1,5.9,1.1,8.8
	c0,7.5-2.9,13-7.8,16.6s-11.8,5.5-19.8,5.5h-1.1c-7-0.1-13.6-3.4-17.9-8.9c-4.4-5.5-6.7-12.3-6.7-19.3c-0.1-9.3,4.3-18.1,11.9-23.5
	c1.8-1.1,3.6-2.1,5.6-2.8c1-0.4,2-0.8,2.8-1l0.7-0.2c-0.4,0.9-1.1,2-1.5,2.9c-1,1.9-2.3,3.7-3.8,5.2c-1.4,1.5-3.4,2.4-5.4,2.5h-0.5
	h-0.9c-0.5,0-0.9,0.4-0.9,0.9c0,0.5,0.4,0.9,0.9,0.9c0,0,0,0,0,0h21.1c0.5,0,0.9-0.4,0.9-0.9c0-0.5-0.4-0.9-0.9-0.9h-1.5h-0.3
	c-1.6-0.1-3.1-0.8-4.2-1.9c-0.8-1-1.2-2.3-1.1-3.7c0.2-2.6,0.8-5.1,1.8-7.5c0.9-2.3,1.9-4.5,2.7-6.3c10.5,9.5,21.4,19.3,24.9,33.4
	L57.2,77.6L57.2,77.6z M19.9,20.6c-1.2-2.2-1.9-4.7-1.9-7.3c0-2.3,0.7-4.6,2-6.4c1.5-2,3.7-3.3,6.2-3.8c1.1-0.2,2.2-0.4,3.2-0.4
	c5.1,0,9.5,2.7,12.5,7l-9.3,25.3l-0.4-0.3C28.4,31.8,22.1,24.8,19.9,20.6z M53.7,35.8H35.3l8.4-22.7c0.1,0.2,0.2,0.4,0.3,0.7
	c1.4,2.8,3.9,8.5,6,13.5c1.1,2.5,2.1,4.8,2.8,6.5L53.7,35.8z"/>
</svg>
